<svg width="93" height="93" viewBox="0 0 93 93" fill="none" xmlns="http://www.w3.org/2000/svg">
<path d="M55.2188 30.5156C55.2188 31.3177 54.5678 31.9687 53.7657 31.9687H39.2345C38.4323 31.9687 37.7813 31.3177 37.7813 30.5156C37.7813 29.7135 38.4323 29.0625 39.2345 29.0625H53.7657C54.5678 29.0625 55.2188 29.7135 55.2188 30.5156ZM53.7657 34.875H39.2345C38.4323 34.875 37.7813 35.526 37.7813 36.3281C37.7813 37.1302 38.4323 37.7812 39.2345 37.7812H53.7657C54.5678 37.7812 55.2188 37.1302 55.2188 36.3281C55.2188 35.526 54.5678 34.875 53.7657 34.875ZM77.4022 74.5133L65.8848 72.758L61.6445 83.6099C60.7058 86.0134 57.3317 86.0918 56.2825 83.7349L46.5001 61.752L36.7176 83.7349C35.6685 86.0918 32.2943 86.0163 31.3556 83.6099L27.1154 72.7609L15.5979 74.5162C13.0462 74.9057 11.2909 72.0227 12.8108 69.936L25.6826 52.2253C20.588 46.9882 17.4376 39.8505 17.4376 31.9687C17.4376 14.8335 32.2653 1.16249 49.787 3.08643C63.2459 4.5628 74.1211 15.6124 75.4231 29.0886C76.292 38.1009 73.0283 46.3576 67.3204 52.2224L80.1922 69.9331C81.7064 72.0198 79.9539 74.9028 77.4022 74.5133ZM43.7043 60.8888C37.6825 60.3134 32.2042 57.9012 27.8245 54.219L15.1649 71.6391L28.9812 69.5349L34.0671 82.552L43.7043 60.8888ZM46.5001 58.125C60.9238 58.125 72.6563 46.3925 72.6563 31.9687C72.6563 17.545 60.9238 5.81249 46.5001 5.81249C32.0764 5.81249 20.3438 17.545 20.3438 31.9687C20.3438 46.3925 32.0764 58.125 46.5001 58.125ZM77.8382 71.642L65.1785 54.2219C60.7959 57.9041 55.3176 60.3163 49.2988 60.8917L58.9388 82.5549L64.0248 69.5378L77.8382 71.642ZM69.7501 31.9687C69.7501 44.8086 59.3399 55.2187 46.5001 55.2187C33.6603 55.2187 23.2501 44.8086 23.2501 31.9687C23.2501 19.1289 33.6603 8.71874 46.5001 8.71874C59.3399 8.71874 69.7501 19.1289 69.7501 31.9687ZM66.8438 31.9687C66.8438 20.7506 57.7182 11.625 46.5001 11.625C35.282 11.625 26.1563 20.7506 26.1563 31.9687C26.1563 43.1869 35.282 52.3125 46.5001 52.3125C57.7182 52.3125 66.8438 43.1869 66.8438 31.9687ZM53.7657 23.25H39.2345C38.4323 23.25 37.7813 23.901 37.7813 24.7031C37.7813 25.5052 38.4323 26.1562 39.2345 26.1562H53.7657C54.5678 26.1562 55.2188 25.5052 55.2188 24.7031C55.2188 23.901 54.5678 23.25 53.7657 23.25Z" fill="white"/>
</svg>
