<svg width="42" height="42" viewBox="0 0 42 42" fill="none" xmlns="http://www.w3.org/2000/svg">
<g filter="url(#filter0_d_74_9188)">
<circle cx="21" cy="19" r="19" fill="white"/>
</g>
<path d="M13.875 18C13.3227 18 12.875 18.4477 12.875 19C12.875 19.5523 13.3227 20 13.875 20V18ZM28.8321 19.7071C29.2226 19.3166 29.2226 18.6834 28.8321 18.2929L22.4681 11.9289C22.0776 11.5384 21.4445 11.5384 21.0539 11.9289C20.6634 12.3195 20.6634 12.9526 21.0539 13.3431L26.7108 19L21.0539 24.6569C20.6634 25.0474 20.6634 25.6805 21.0539 26.0711C21.4445 26.4616 22.0776 26.4616 22.4681 26.0711L28.8321 19.7071ZM13.875 20H28.125V18H13.875V20Z" fill="#37ADE6"/>
<defs>
<filter id="filter0_d_74_9188" x="0" y="0" width="42" height="42" filterUnits="userSpaceOnUse" color-interpolation-filters="sRGB">
<feFlood flood-opacity="0" result="BackgroundImageFix"/>
<feColorMatrix in="SourceAlpha" type="matrix" values="0 0 0 0 0 0 0 0 0 0 0 0 0 0 0 0 0 0 127 0" result="hardAlpha"/>
<feOffset dy="2"/>
<feGaussianBlur stdDeviation="1"/>
<feComposite in2="hardAlpha" operator="out"/>
<feColorMatrix type="matrix" values="0 0 0 0 0 0 0 0 0 0 0 0 0 0 0 0 0 0 0.25 0"/>
<feBlend mode="normal" in2="BackgroundImageFix" result="effect1_dropShadow_74_9188"/>
<feBlend mode="normal" in="SourceGraphic" in2="effect1_dropShadow_74_9188" result="shape"/>
</filter>
</defs>
</svg>
