<svg width="19" height="16" viewBox="0 0 19 16" fill="none" xmlns="http://www.w3.org/2000/svg">
<path d="M1 6.99985C0.447715 6.99985 0 7.44756 0 7.99985C0 8.55213 0.447715 8.99985 1 8.99985V6.99985ZM18.7071 8.70695C19.0976 8.31643 19.0976 7.68326 18.7071 7.29274L12.3431 0.92878C11.9526 0.538255 11.3195 0.538255 10.9289 0.92878C10.5384 1.3193 10.5384 1.95247 10.9289 2.34299L16.5858 7.99985L10.9289 13.6567C10.5384 14.0472 10.5384 14.6804 10.9289 15.0709C11.3195 15.4614 11.9526 15.4614 12.3431 15.0709L18.7071 8.70695ZM1 8.99985H18V6.99985H1V8.99985Z" fill="white"/>
</svg>
