<svg width="157" height="29" viewBox="0 0 157 29" fill="none" xmlns="http://www.w3.org/2000/svg">
<g id="&#208;&#159;&#208;&#190;&#208;&#180;&#208;&#187;&#208;&#190;&#208;&#182;&#208;&#186;&#208;&#176;">
<g id="Group">
<g id="Group_2">
<path id="Vector" d="M20.0573 7.85H0C0.0528328 6.84373 0.391443 4.48572 2.8962 2.26754C4.13537 1.17079 5.41777 0.45241 6.46482 0H20.0573V7.85Z" fill="#7C1D26"/>
</g>
<g id="Group_3">
<path id="Vector_2" d="M136.943 7.85H157C156.947 6.84373 156.609 4.48572 154.104 2.26754C152.865 1.17079 151.582 0.45241 150.535 0H136.943V7.85Z" fill="#7C1D26"/>
</g>
<path id="Rectangle 24" d="M7.06497 0H149.935C144.047 2.7475 143.94 7.85 141.692 13.345C138.16 21.98 128.347 28.26 121.675 28.26H35.325C26.2975 28.26 17.27 19.2325 14.915 12.9525C13.4027 8.9198 12.1675 1.9625 7.06497 0Z" fill="url(#paint0_linear_74_9269)"/>
</g>
</g>
<defs>
<linearGradient id="paint0_linear_74_9269" x1="78.5" y1="0" x2="78.5" y2="28.26" gradientUnits="userSpaceOnUse">
<stop stop-color="#B52B35"/>
<stop offset="0.390625" stop-color="#CA3D50"/>
<stop offset="1" stop-color="#B32A33"/>
</linearGradient>
</defs>
</svg>
