<svg width="19" height="19" viewBox="0 0 19 19" fill="none" xmlns="http://www.w3.org/2000/svg">
<g clip-path="url(#clip0_74_9776)">
<path d="M14.6 1H4.4C2.53 1 1 2.53 1 4.4V14.6C1 16.47 2.53 18 4.4 18H14.6C16.47 18 18 16.47 18 14.6V4.4C18 2.53 16.47 1 14.6 1ZM9.5 13.75C7.1625 13.75 5.25 11.8375 5.25 9.5C5.25 7.1625 7.1625 5.25 9.5 5.25C11.8375 5.25 13.75 7.1625 13.75 9.5C13.75 11.8375 11.8375 13.75 9.5 13.75ZM14.175 5.675C13.7075 5.675 13.325 5.2925 13.325 4.825C13.325 4.3575 13.7075 3.975 14.175 3.975C14.6425 3.975 15.025 4.3575 15.025 4.825C15.025 5.2925 14.6425 5.675 14.175 5.675Z" fill="white"/>
</g>
<defs>
<clipPath id="clip0_74_9776">
<rect width="19" height="19" fill="white"/>
</clipPath>
</defs>
</svg>
