<svg width="19" height="19" viewBox="0 0 19 19" fill="none" xmlns="http://www.w3.org/2000/svg">
<path d="M5.326 2.28478C5.326 2.54508 5.27431 2.80255 5.1742 3.0409C5.07409 3.27926 4.92773 3.49332 4.74439 3.66954C4.56104 3.84577 4.3447 3.98032 4.10903 4.0647C3.87336 4.14908 3.62351 4.18145 3.37525 4.15976H3.35181C3.10629 4.173 2.86079 4.13348 2.63047 4.04364C2.40016 3.9538 2.18993 3.81556 2.01278 3.63745C1.83563 3.45934 1.69532 3.24516 1.60054 3.00814C1.50576 2.77112 1.45852 2.51631 1.46173 2.25946C1.46495 2.0026 1.51855 1.74917 1.61923 1.51482C1.7199 1.28048 1.86552 1.0702 2.04706 0.89699C2.2286 0.723781 2.44222 0.591323 2.67471 0.507806C2.90719 0.424289 3.1536 0.391488 3.3987 0.411431C3.6452 0.392064 3.89287 0.426168 4.12615 0.511601C4.35944 0.597035 4.57329 0.731952 4.75428 0.907877C4.93527 1.0838 5.07949 1.29693 5.17788 1.53389C5.27627 1.77084 5.3267 2.02649 5.326 2.28478ZM1.64803 5.64112H5.09623V16.4811H1.64803V5.64112ZM17.5369 10.2632V16.4811H14.0887V10.683C14.0887 9.22449 13.5901 8.22983 12.3381 8.22983C11.9498 8.2335 11.572 8.36196 11.256 8.59777C10.94 8.83357 10.7011 9.16529 10.5718 9.54787C10.4834 9.83121 10.4448 10.1289 10.4577 10.4266V16.4827H7.00633C7.00633 16.4827 7.05323 6.65537 7.00633 5.63949H10.4608V7.17475L10.4358 7.21232H10.4592V7.17148C10.7715 6.60496 11.2265 6.13871 11.7746 5.82341C12.3227 5.50811 12.9431 5.35581 13.5682 5.38307C15.8363 5.38307 17.5369 6.93303 17.5369 10.2632Z" fill="white"/>
</svg>
