<svg width="270" height="58" viewBox="0 0 270 58" fill="none" xmlns="http://www.w3.org/2000/svg">
<path d="M96.3936 16.478C96.3936 18.3117 94.9148 19.7982 93.0906 19.7982C91.2664 19.7982 89.7876 18.3117 89.7876 16.478C89.7876 14.6443 91.2664 13.1578 93.0906 13.1578C94.9148 13.1578 96.3936 14.6443 96.3936 16.478Z" fill="#7CDDF6"/>
<path d="M96.3936 28.529C96.3936 30.3627 94.9148 31.8492 93.0906 31.8492C91.2664 31.8492 89.7876 30.3627 89.7876 28.529C89.7876 26.6953 91.2664 25.2088 93.0906 25.2088C94.9148 25.2088 96.3936 26.6953 96.3936 28.529Z" fill="#7CDDF6"/>
<path d="M102.51 22.3805C102.51 24.2142 101.031 25.7007 99.2073 25.7007C97.3831 25.7007 95.9043 24.2142 95.9043 22.3805C95.9043 20.5468 97.3831 19.0603 99.2073 19.0603C101.031 19.0603 102.51 20.5468 102.51 22.3805Z" fill="#7CDDF6"/>
<path d="M90.5216 22.3805C90.5216 24.2142 89.0428 25.7007 87.2187 25.7007C85.3945 25.7007 83.9157 24.2142 83.9157 22.3805C83.9157 20.5468 85.3945 19.0603 87.2187 19.0603C89.0428 19.0603 90.5216 20.5468 90.5216 22.3805Z" fill="#7CDDF6"/>
<path d="M62.8744 39.1044L69.6027 22.3805H65.4434L77.799 0L64.0977 23.2413H68.5017L62.8744 39.1044Z" fill="url(#paint0_linear_179_420)"/>
<path d="M77.799 8.60789L71.8047 18.1996H76.5757C69.6272 29.1193 62.0181 43.8183 59.0821 49.8028L77.5544 17.7077H72.7834L77.799 8.60789Z" fill="url(#paint1_linear_179_420)"/>
<path fill-rule="evenodd" clip-rule="evenodd" d="M77.799 0L64.0977 8.23899C62.387 8.0097 61.1016 7.36794 59.6963 6.66633C58.0868 5.86277 56.3201 4.98071 53.5771 4.54989C47.0527 3.52514 33.49 5.77959 31.4348 22.9954C30.9301 25.2993 30.2345 28.4622 29.503 31.7692C25.7335 52.0134 34.9456 53.338 44.3152 50.6269C48.0873 46.4576 51.5878 42.5885 62.8744 39.1044L68.5017 23.2413H64.0977L77.799 0ZM50.7634 34.8005C57.7224 34.8005 63.3637 29.1298 63.3637 22.1346C63.3637 15.1394 57.7224 9.46869 50.7634 9.46869C43.8045 9.46869 38.1632 15.1394 38.1632 22.1346C38.1632 29.1298 43.8045 34.8005 50.7634 34.8005Z" fill="#7CDDF6"/>
<path d="M25.9299 47.5894C24.4007 53.7379 32.9028 61.1161 39.5088 55.4594C41.4362 53.8091 42.895 52.1967 44.3152 50.6269C34.9456 53.338 25.7335 52.0134 29.503 31.7692C29.4146 32.1689 29.3256 32.5706 29.2364 32.9732C27.8579 39.1967 26.4192 45.6218 25.9299 47.5894Z" fill="url(#paint2_linear_179_420)"/>
<path fill-rule="evenodd" clip-rule="evenodd" d="M72.7834 17.7077L77.799 8.60789C81.2243 9.22274 81.2998 8.23229 87.8303 6.27147C97.2499 3.44316 108.505 10.0835 111.074 18.1996C111.651 20.7942 111.975 22.9377 112.314 25.1906C113.053 30.0915 113.87 35.5109 117.557 47.2205C118.903 53.8608 111.245 62.813 102.143 53.8608C101.564 53.2914 100.938 52.6313 100.254 51.9113C95.1584 46.5452 86.9052 37.8536 71.8047 38.6126L59.0821 49.8028L77.5544 17.7077H72.7834ZM93.0906 34.8005C100.05 34.8005 105.691 29.1298 105.691 22.1346C105.691 15.1394 100.05 9.46869 93.0906 9.46869C86.1317 9.46869 80.4903 15.1394 80.4903 22.1346C80.4903 29.1298 86.1317 34.8005 93.0906 34.8005ZM96.3936 16.478C96.3936 18.3117 94.9148 19.7982 93.0906 19.7982C91.2664 19.7982 89.7876 18.3117 89.7876 16.478C89.7876 14.6443 91.2664 13.1578 93.0906 13.1578C94.9148 13.1578 96.3936 14.6443 96.3936 16.478ZM96.3936 28.529C96.3936 30.3627 94.9148 31.8492 93.0906 31.8492C91.2664 31.8492 89.7876 30.3627 89.7876 28.529C89.7876 26.6953 91.2664 25.2088 93.0906 25.2088C94.9148 25.2088 96.3936 26.6953 96.3936 28.529ZM102.51 22.3805C102.51 24.2142 101.031 25.7007 99.2073 25.7007C97.3831 25.7007 95.9043 24.2142 95.9043 22.3805C95.9043 20.5468 97.3831 19.0603 99.2073 19.0603C101.031 19.0603 102.51 20.5468 102.51 22.3805ZM90.5216 22.3805C90.5216 24.2142 89.0428 25.7007 87.2187 25.7007C85.3945 25.7007 83.9157 24.2142 83.9157 22.3805C83.9157 20.5468 85.3945 19.0603 87.2187 19.0603C89.0428 19.0603 90.5216 20.5468 90.5216 22.3805Z" fill="#7CDDF6"/>
<path d="M111.074 18.1996C108.169 5.15931 93.213 2.97519 88.1973 4.79583C86.5939 5.37786 85.2985 6.04141 84.1106 6.64995C82.0357 7.71281 80.2884 8.60789 77.799 8.60789C81.2243 9.22274 81.2998 8.23229 87.8303 6.27147C97.2499 3.44316 108.505 10.0835 111.074 18.1996Z" fill="#7CDDF6"/>
<path fill-rule="evenodd" clip-rule="evenodd" d="M50.8859 13.4036C49.2644 13.4036 47.9499 14.725 47.9499 16.3549V19.3062H45.2586C43.6371 19.3062 42.3226 20.6275 42.3226 22.2575C42.3226 23.8874 43.6371 25.2088 45.2586 25.2088H47.9499V28.16C47.9499 29.79 49.2644 31.1113 50.8859 31.1113C52.5074 31.1113 53.8219 29.79 53.8219 28.16V25.2088H56.5132C58.1347 25.2088 59.4492 23.8874 59.4492 22.2575C59.4492 20.6275 58.1347 19.3062 56.5132 19.3062H53.8219V16.3549C53.8219 14.725 52.5074 13.4036 50.8859 13.4036ZM53.8219 19.3062H47.9499V25.2088H53.8219V19.3062Z" fill="#7CDDF6"/>
<path d="M47.9499 25.2088H53.8219V19.3062H47.9499V25.2088Z" fill="#7CDDF6"/>
<path d="M132.441 49.7464C131.113 49.7464 129.871 49.6256 128.715 49.3841C127.577 49.1599 126.619 48.858 125.843 48.4785C125.067 48.099 124.429 47.7367 123.928 47.3917C123.445 47.0467 123.04 46.7017 122.712 46.3567V42.0638C123.42 43.0126 125.015 41.8457 126.205 42.553C127.396 43.243 128.681 43.588 130.061 43.588C131.441 43.588 132.433 43.4414 133.037 43.1481C133.658 42.8549 133.968 42.3201 133.968 41.5439C133.968 40.7158 133.615 40.0086 132.907 39.4221C132.217 38.8356 131.018 38.1283 129.311 37.3003C128.69 36.9898 128.163 36.7138 127.732 36.4723C127.301 36.2135 126.723 35.7995 125.998 35.2302C125.291 34.6437 124.713 34.04 124.265 33.4189C123.816 32.7807 123.42 31.9699 123.075 30.9866C122.73 29.9861 122.557 28.9166 122.557 27.7781C122.557 21.6197 126.033 18.5405 132.985 18.5405C134.089 18.5405 135.124 18.6612 136.09 18.9028C137.073 19.127 137.841 19.3771 138.393 19.6531C138.945 19.9291 138.958 20.0807 139.406 20.4602C139.872 20.8224 139.286 20.7931 139.406 20.9484C139.527 21.0864 140.941 17.4447 140.993 17.531L140.017 26.9871C139.344 26.1936 138.22 25.363 137.203 24.9835C136.202 24.5867 135.245 24.3884 134.33 24.3884C132.122 24.3884 131.018 25.0784 131.018 26.4584C131.018 26.8207 131.087 27.1484 131.225 27.4417C131.363 27.7349 131.588 28.0023 131.898 28.2438C132.209 28.4853 132.493 28.6923 132.752 28.8648C133.028 29.0373 133.399 29.253 133.865 29.5117C134.348 29.7532 134.71 29.9516 134.951 30.1069C137.47 31.1764 139.316 32.4443 140.489 33.9106C141.679 35.3769 142.274 37.1623 142.274 39.2668C142.274 42.6824 141.429 45.2872 139.738 47.0812C138.065 48.858 135.633 49.7464 132.441 49.7464Z" fill="#4C5C75"/>
<path d="M149.829 49.203V25.7339H143.774V18.8769H164.63V25.7339H158.575V49.203H149.829Z" fill="#4C5C75"/>
<path d="M185.27 49.203H166.924V18.8769H184.474L184.078 24.9752L175.489 24.7247V30.5726H182.475V36.6275L175.489 36.11V42.9929L185.27 42.7341V49.203Z" fill="#4C5C75"/>
<path d="M196.133 39.1116V49.203H187.542V18.8769H190.958C191.786 18.8769 193.019 18.8424 194.658 18.7734C196.297 18.6871 197.651 18.644 198.72 18.644C202.446 18.644 205.224 19.4634 207.052 21.1022C208.898 22.741 209.821 25.2509 209.821 28.632C209.821 30.633 209.381 32.4098 208.501 33.9623C207.639 35.5149 206.492 36.7483 205.06 37.6625C205.836 37.8523 206.5 38.2922 207.052 38.9822C207.621 39.6722 208.061 40.4916 208.372 41.4404C208.682 42.3719 210.93 44.9931 210.93 44.9931C210.93 44.9931 210.93 45.8475 210.93 46.8239C210.93 47.8004 210.93 49.203 210.93 49.203H201.437C201.247 48.9615 201.101 48.2888 200.997 47.1847C200.894 46.0635 200.747 44.7266 200.557 43.174C200.385 41.6042 200.135 40.2932 199.807 39.2409C199.773 39.2409 199.729 39.2409 199.678 39.2409C199.35 39.2409 198.996 39.2409 198.617 39.2409C198.255 39.2237 197.935 39.2064 197.659 39.1892C197.383 39.1719 197.09 39.1547 196.78 39.1374C196.486 39.1202 196.271 39.1116 196.133 39.1116ZM196.133 34.2987H196.961C197.392 34.2987 197.754 34.2815 198.048 34.247C198.341 34.2125 198.66 34.1521 199.005 34.0658C199.367 33.9623 199.66 33.8071 199.885 33.6001C200.126 33.3931 200.35 33.1257 200.557 32.7979C200.764 32.4702 200.92 32.0475 201.023 31.53C201.127 31.0125 201.178 30.4087 201.178 29.7187V27.6746C201.178 26.1738 200.782 25.1301 199.988 24.5436C199.212 23.9399 198.091 23.638 196.624 23.638H196.133V34.2987Z" fill="#4C5C75"/>
<path d="M221.667 49.7464C220.338 49.7464 219.096 49.6256 217.941 49.3841C216.802 49.1599 215.845 48.858 215.068 48.4785C214.292 48.099 213.654 47.7367 213.154 47.3917C212.671 47.0467 212.265 46.7017 211.937 46.3567L212.584 40.069C213.292 41.0177 214.24 41.8457 215.431 42.553C216.621 43.243 217.906 43.588 219.286 43.588C220.666 43.588 221.658 43.4414 222.262 43.1481C222.883 42.8549 223.193 42.3201 223.193 41.5439C223.193 40.7158 222.84 40.0086 222.132 39.4221C221.442 38.8356 220.243 38.1283 218.536 37.3003C217.915 36.9898 217.389 36.7138 216.957 36.4723C216.526 36.2135 215.948 35.7995 215.224 35.2302C214.516 34.6437 213.938 34.04 213.49 33.4189C213.041 32.7807 212.645 31.9699 212.3 30.9866C211.955 29.9861 211.782 28.9166 211.782 27.7781C211.782 21.6197 215.258 18.5405 222.21 18.5405C223.314 18.5405 224.349 18.6612 225.315 18.9028C226.298 19.127 227.066 19.3771 227.618 19.6531C228.17 19.9291 227.814 19.5915 228.262 19.971C228.728 20.3332 228.507 19.2056 228.628 19.3608C228.749 19.4988 230.163 17.4447 230.215 17.531L229.116 26.8959C228.444 26.1024 227.446 25.363 226.428 24.9835C225.427 24.5867 224.47 24.3884 223.556 24.3884C221.348 24.3884 220.243 25.0784 220.243 26.4584C220.243 26.8207 220.312 27.1484 220.451 27.4417C220.589 27.7349 220.813 28.0023 221.123 28.2438C221.434 28.4853 221.718 28.6923 221.977 28.8648C222.253 29.0373 222.624 29.253 223.09 29.5117C223.573 29.7532 223.935 29.9516 224.177 30.1069C226.695 31.1764 228.541 32.4443 229.714 33.9106C230.904 35.3769 231.499 37.1623 231.499 39.2668C231.499 42.6824 230.654 45.2872 228.964 47.0812C227.29 48.858 224.858 49.7464 221.667 49.7464Z" fill="#4C5C75"/>
<path d="M132.441 45.5355C131.113 45.5355 129.871 45.4147 128.715 45.1732C127.577 44.949 126.619 44.6471 125.843 44.2676C125.067 43.8881 124.429 43.5258 123.928 43.1808C123.445 42.8358 123.04 42.4908 122.712 42.1458L123.359 35.858C124.066 36.8068 125.015 37.6348 126.205 38.3421C127.396 39.0321 128.681 39.3771 130.061 39.3771C131.441 39.3771 132.433 39.2305 133.037 38.9372C133.658 38.644 133.968 38.1092 133.968 37.333C133.968 36.5049 133.615 35.7977 132.907 35.2112C132.217 34.6246 131.018 33.9174 129.311 33.0894C128.69 32.7789 128.163 32.5028 127.732 32.2613C127.301 32.0026 126.723 31.5886 125.998 31.0193C125.291 30.4328 124.713 29.829 124.265 29.208C123.816 28.5698 123.42 27.759 123.075 26.7757C122.73 25.7752 122.557 24.7057 122.557 23.5672C122.557 17.4088 126.033 14.3296 132.985 14.3296C134.089 14.3296 135.124 14.4503 136.09 14.6918C137.073 14.9161 137.841 15.1662 138.393 15.4422C138.945 15.7182 139.445 16.046 139.894 16.4255C140.359 16.7878 140.653 17.0465 140.773 17.2018C140.894 17.3398 140.98 17.4519 141.032 17.5382L139.773 22.5341C139.1 21.7406 138.22 21.1521 137.203 20.7726C136.202 20.3758 135.245 20.1775 134.33 20.1775C132.122 20.1775 131.018 20.8675 131.018 22.2475C131.018 22.6098 131.087 22.9375 131.225 23.2308C131.363 23.524 131.588 23.7914 131.898 24.0329C132.209 24.2744 132.493 24.4814 132.752 24.6539C133.028 24.8264 133.399 25.0421 133.865 25.3008C134.348 25.5423 134.71 25.7407 134.951 25.896C137.47 26.9655 139.316 28.2334 140.489 29.6997C141.679 31.1659 142.274 32.9514 142.274 35.0559C142.274 38.4715 141.429 41.0763 139.738 42.8703C138.065 44.6471 135.633 45.5355 132.441 45.5355Z" fill="white"/>
<path d="M149.829 44.9921V21.523H143.774V14.666H164.63V21.523H158.575V44.9921H149.829Z" fill="white"/>
<path d="M185.27 44.9921H166.924V14.666H184.882L184.364 20.7726L175.489 20.5138V26.3617H182.475V32.4166L175.489 31.8991V38.782L185.27 38.5232V44.9921Z" fill="white"/>
<path d="M196.133 34.9007V44.9921H187.542V14.666H190.958C191.786 14.666 193.019 14.6315 194.658 14.5625C196.297 14.4762 197.651 14.4331 198.72 14.4331C202.446 14.4331 205.224 15.2525 207.052 16.8913C208.898 18.5301 209.821 21.04 209.821 24.4211C209.821 26.4221 209.381 28.1989 208.501 29.7514C207.639 31.3039 206.492 32.5373 205.06 33.4516C205.836 33.6414 206.5 34.0813 207.052 34.7713C207.621 35.4613 208.061 36.2807 208.372 37.2294C208.682 38.161 208.95 39.1097 209.174 40.0758C209.416 41.0245 209.683 41.9647 209.976 42.8962C210.287 43.8277 210.623 44.5264 210.985 44.9921H201.437C201.247 44.7506 201.101 44.0778 200.997 42.9738C200.894 41.8525 200.747 40.5156 200.557 38.9631C200.385 37.3933 200.135 36.0823 199.807 35.03C199.773 35.03 199.729 35.03 199.678 35.03C199.35 35.03 198.996 35.03 198.617 35.03C198.255 35.0128 197.935 34.9955 197.659 34.9783C197.383 34.961 197.09 34.9438 196.78 34.9265C196.486 34.9093 196.271 34.9007 196.133 34.9007ZM196.133 30.0878H196.961C197.392 30.0878 197.754 30.0705 198.048 30.036C198.341 30.0015 198.66 29.9412 199.005 29.8549C199.367 29.7514 199.66 29.5962 199.885 29.3892C200.126 29.1822 200.35 28.9148 200.557 28.587C200.764 28.2593 200.92 27.8366 201.023 27.3191C201.127 26.8016 201.178 26.1978 201.178 25.5078V23.4637C201.178 21.9629 200.782 20.9192 199.988 20.3327C199.212 19.729 198.091 19.4271 196.624 19.4271H196.133V30.0878Z" fill="white"/>
<path d="M221.667 45.5355C220.338 45.5355 219.096 45.4147 217.941 45.1732C216.802 44.949 215.845 44.6471 215.068 44.2676C214.292 43.8881 213.654 43.5258 213.154 43.1808C212.671 42.8358 212.265 42.4908 211.937 42.1458L212.584 35.858C213.292 36.8068 214.24 37.6348 215.431 38.3421C216.621 39.0321 217.906 39.3771 219.286 39.3771C220.666 39.3771 221.658 39.2305 222.262 38.9372C222.883 38.644 223.193 38.1092 223.193 37.333C223.193 36.5049 222.84 35.7977 222.132 35.2112C221.442 34.6246 220.243 33.9174 218.536 33.0894C217.915 32.7789 217.389 32.5028 216.957 32.2613C216.526 32.0026 215.948 31.5886 215.224 31.0193C214.516 30.4328 213.938 29.829 213.49 29.208C213.041 28.5698 212.645 27.759 212.3 26.7757C211.955 25.7752 211.782 24.7057 211.782 23.5672C211.782 17.4088 215.258 14.3296 222.21 14.3296C223.314 14.3296 224.349 14.4503 225.315 14.6918C226.298 14.9161 227.066 15.1662 227.618 15.4422C228.17 15.7182 228.67 16.046 229.119 16.4255C229.585 16.7878 229.878 17.0465 229.999 17.2018C230.119 17.3398 230.206 17.4519 230.257 17.5382L228.964 22.5321C228.291 21.7386 227.446 21.1521 226.428 20.7726C225.427 20.3758 224.47 20.1775 223.556 20.1775C221.348 20.1775 220.243 20.8675 220.243 22.2475C220.243 22.6098 220.312 22.9375 220.451 23.2308C220.589 23.524 220.813 23.7914 221.123 24.0329C221.434 24.2744 221.718 24.4814 221.977 24.6539C222.253 24.8264 222.624 25.0421 223.09 25.3008C223.573 25.5423 223.935 25.7407 224.177 25.896C226.695 26.9655 228.541 28.2334 229.714 29.6997C230.904 31.1659 231.499 32.9514 231.499 35.0559C231.499 38.4715 230.654 41.0763 228.964 42.8703C227.29 44.6471 224.858 45.5355 221.667 45.5355Z" fill="white"/>
<path d="M10.5572 44.1315C11.782 44.1315 12.679 43.7865 13.2483 43.0964C13.8175 42.4064 14.1022 41.587 14.1022 40.6383V38.827C14.1022 37.7057 13.7399 36.9122 13.0154 36.4464C12.2909 35.9634 11.4715 35.7219 10.5572 35.7219H8.53893V44.1315H10.5572ZM13.7399 26.6396C13.7399 25.6046 13.4553 24.8887 12.886 24.4919C12.3168 24.0779 11.4974 23.8709 10.4278 23.8709H8.53893V31.3489H10.6349C11.6354 31.3489 12.403 30.9608 12.9378 30.1845C13.4725 29.391 13.7399 28.425 13.7399 27.2865V26.6396ZM12.3168 49.4359C10.9712 49.4359 9.22895 49.4014 7.0899 49.3324C4.95085 49.2634 3.41557 49.2203 2.48405 49.2031H0V18.8769H4.47647C5.56324 18.8769 6.80527 18.8424 8.20255 18.7734C9.59983 18.6872 10.609 18.644 11.23 18.644C13.2483 18.644 14.9474 18.8079 16.3275 19.1357C17.7248 19.4634 18.8201 19.9551 19.6137 20.6106C20.4072 21.2661 20.9678 22.0251 21.2956 22.8876C21.6406 23.7502 21.8131 24.7765 21.8131 25.9668C21.8131 27.7954 21.3905 29.3651 20.5452 30.6762C19.6999 31.9872 18.4751 32.8066 16.8709 33.1343C20.9419 33.4966 22.9775 35.8858 22.9775 40.3019C22.9775 41.6302 22.7791 42.8377 22.3823 43.9245C21.9856 44.994 21.3732 45.9514 20.5452 46.7966C19.7344 47.6247 18.6304 48.2715 17.2331 48.7373C15.8358 49.2031 14.1971 49.4359 12.3168 49.4359Z" fill="#4C5C75"/>
<path d="M10.5572 39.9205C11.782 39.9205 12.679 39.5755 13.2483 38.8855C13.8175 38.1955 14.1022 37.3761 14.1022 36.4273V34.616C14.1022 33.4948 13.7399 32.7012 13.0154 32.2355C12.2909 31.7525 11.4715 31.511 10.5572 31.511H8.53893V39.9205H10.5572ZM13.7399 22.4286C13.7399 21.3936 13.4553 20.6777 12.886 20.281C12.3168 19.867 11.4974 19.66 10.4278 19.66H8.53893V27.138H10.6349C11.6354 27.138 12.403 26.7499 12.9378 25.9736C13.4725 25.1801 13.7399 24.2141 13.7399 23.0755V22.4286ZM12.3168 45.225C10.9712 45.225 9.22895 45.1905 7.0899 45.1215C4.95085 45.0525 3.41557 45.0094 2.48405 44.9921H0V14.666H4.47647C5.56324 14.666 6.80527 14.6315 8.20255 14.5625C9.59983 14.4762 10.609 14.4331 11.23 14.4331C13.2483 14.4331 14.9474 14.597 16.3275 14.9247C17.7248 15.2525 18.8201 15.7441 19.6137 16.3996C20.4072 17.0552 20.9678 17.8142 21.2956 18.6767C21.6406 19.5392 21.8131 20.5656 21.8131 21.7559C21.8131 23.5844 21.3905 25.1542 20.5452 26.4652C19.6999 27.7763 18.4751 28.5957 16.8709 28.9234C20.9419 29.2857 22.9775 31.6748 22.9775 36.0909C22.9775 37.4192 22.7791 38.6267 22.3823 39.7135C21.9856 40.783 21.3732 41.7404 20.5452 42.5857C19.7344 43.4137 18.6304 44.0606 17.2331 44.5264C15.8358 44.9921 14.1971 45.225 12.3168 45.225Z" fill="white"/>
<g filter="url(#filter0_d_179_420)">
<path d="M243.722 55.9854C242.757 55.9854 241.669 55.7627 240.457 55.3175C239.245 54.8846 238.459 54.4703 238.101 54.0745L239.269 51.5328C239.579 51.7678 240.08 51.9843 240.772 52.1821C241.465 52.38 242.058 52.479 242.553 52.479C243.048 52.479 243.475 52.411 243.833 52.2749C244.204 52.1512 244.489 51.9904 244.687 51.7925C244.885 51.607 245.045 51.372 245.169 51.0876C245.293 50.8155 245.367 50.5681 245.392 50.3455C245.429 50.1228 245.454 49.8755 245.466 49.6034V48.0264C244.415 49.1148 243.134 49.659 241.626 49.659C239.585 49.659 238.088 48.9602 237.136 47.5626C236.184 46.165 235.707 44.2232 235.707 41.7372C235.707 40.5746 235.837 39.5048 236.097 38.5277C236.357 37.5382 236.734 36.6724 237.229 35.9304C237.736 35.1759 238.391 34.5884 239.195 34.1679C239.999 33.735 240.908 33.5186 241.922 33.5186C243.456 33.5186 244.786 33.8587 245.911 34.5389L246.227 33.667H249.065L252.553 33.8339V35.5779L251.44 36.3571V48.75C251.44 53.5736 248.867 55.9854 243.722 55.9854ZM244.316 46.2825C244.687 46.2825 245.07 46.1774 245.466 45.9671V36.1901C245.169 36.1282 244.897 36.0973 244.65 36.0973C243.005 36.1097 242.176 37.3774 242.164 39.9005V42.7761C242.164 43.5677 242.269 44.248 242.479 44.8169C242.85 45.794 243.462 46.2825 244.316 46.2825Z" fill="#7CDDF6"/>
<path d="M261.169 55.9854C260.204 55.9854 259.116 55.7627 257.904 55.3175C256.692 54.8846 255.906 54.4703 255.548 54.0745L256.717 51.5328C257.026 51.7678 257.527 51.9843 258.219 52.1821C258.912 52.38 259.506 52.479 260 52.479C260.495 52.479 260.922 52.411 261.28 52.2749C261.651 52.1512 261.936 51.9904 262.134 51.7925C262.332 51.607 262.492 51.372 262.616 51.0876C262.74 50.8155 262.814 50.5681 262.839 50.3455C262.876 50.1228 262.901 49.8755 262.913 49.6034V48.0264C261.862 49.1148 260.582 49.659 259.073 49.659C257.032 49.659 255.535 48.9602 254.583 47.5626C253.631 46.165 253.155 44.2232 253.155 41.7372C253.155 40.5746 253.284 39.5048 253.544 38.5277C253.804 37.5382 254.181 36.6724 254.676 35.9304C255.183 35.1759 255.838 34.5884 256.642 34.1679C257.446 33.735 258.355 33.5186 259.37 33.5186C260.903 33.5186 262.233 33.8587 263.358 34.5389L263.674 33.667H266.512L270 33.8339V35.5779L268.887 36.3571V48.75C268.887 53.5736 266.314 55.9854 261.169 55.9854ZM261.763 46.2825C262.134 46.2825 262.517 46.1774 262.913 45.9671V36.1901C262.616 36.1282 262.344 36.0973 262.097 36.0973C260.452 36.1097 259.623 37.3774 259.611 39.9005V42.7761C259.611 43.5677 259.716 44.248 259.926 44.8169C260.297 45.794 260.909 46.2825 261.763 46.2825Z" fill="#7CDDF6"/>
</g>
<defs>
<filter id="filter0_d_179_420" x="235.707" y="33.5186" width="34.2926" height="24.4668" filterUnits="userSpaceOnUse" color-interpolation-filters="sRGB">
<feFlood flood-opacity="0" result="BackgroundImageFix"/>
<feColorMatrix in="SourceAlpha" type="matrix" values="0 0 0 0 0 0 0 0 0 0 0 0 0 0 0 0 0 0 127 0" result="hardAlpha"/>
<feOffset dy="2"/>
<feComposite in2="hardAlpha" operator="out"/>
<feColorMatrix type="matrix" values="0 0 0 0 0.0855903 0 0 0 0 0.497901 0 0 0 0 0.604167 0 0 0 1 0"/>
<feBlend mode="normal" in2="BackgroundImageFix" result="effect1_dropShadow_179_420"/>
<feBlend mode="normal" in="SourceGraphic" in2="effect1_dropShadow_179_420" result="shape"/>
</filter>
<linearGradient id="paint0_linear_179_420" x1="58.9193" y1="-0.631797" x2="96.3546" y2="61.5746" gradientUnits="userSpaceOnUse">
<stop offset="0.258586" stop-color="#4896DF"/>
<stop offset="0.80294" stop-color="#7CDDF6"/>
</linearGradient>
<linearGradient id="paint1_linear_179_420" x1="58.9193" y1="-0.631797" x2="96.3546" y2="61.5746" gradientUnits="userSpaceOnUse">
<stop offset="0.258586" stop-color="#4896DF"/>
<stop offset="0.80294" stop-color="#7CDDF6"/>
</linearGradient>
<linearGradient id="paint2_linear_179_420" x1="58.9193" y1="-0.631797" x2="96.3546" y2="61.5746" gradientUnits="userSpaceOnUse">
<stop offset="0.258586" stop-color="#4896DF"/>
<stop offset="0.80294" stop-color="#7CDDF6"/>
</linearGradient>
</defs>
</svg>
