<svg width="22" height="22" viewBox="0 0 22 22" fill="none" xmlns="http://www.w3.org/2000/svg">
<g id="copy-svgrepo-com 1" clip-path="url(#clip0_74_9278)">
<g id="Clip path group">
<mask id="mask0_74_9278" style="mask-type:luminance" maskUnits="userSpaceOnUse" x="0" y="0" width="22" height="22">
<g id="a">
<path id="Vector" d="M0 0H22V22H0V0Z" fill="white"/>
</g>
</mask>
<g mask="url(#mask0_74_9278)">
<g id="Group">
<path id="Vector_2" fill-rule="evenodd" clip-rule="evenodd" d="M7.33333 4.58333H14.4788C15.5008 4.58333 15.8712 4.68967 16.2443 4.8895C16.6173 5.08933 16.9107 5.38267 17.1105 5.75575C17.3103 6.12883 17.4167 6.49917 17.4167 7.52125V14.6667C17.4167 14.9098 17.5132 15.1429 17.6852 15.3148C17.8571 15.4868 18.0902 15.5833 18.3333 15.5833C18.5764 15.5833 18.8096 15.4868 18.9815 15.3148C19.1534 15.1429 19.25 14.9098 19.25 14.6667V7.45067C19.25 5.81625 19.0795 5.22317 18.7605 4.6255C18.4479 4.03499 17.965 3.55209 17.3745 3.2395C16.7768 2.9205 16.1838 2.75 14.5493 2.75H7.33333C7.09022 2.75 6.85706 2.84658 6.68515 3.01849C6.51324 3.19039 6.41667 3.42355 6.41667 3.66667C6.41667 3.90978 6.51324 4.14294 6.68515 4.31485C6.85706 4.48676 7.09022 4.58333 7.33333 4.58333ZM14.4109 6.72283C14.0378 6.523 13.6675 6.41667 12.6454 6.41667H5.68792C4.66583 6.41667 4.2955 6.523 3.92242 6.72283C3.55335 6.91821 3.25154 7.22002 3.05617 7.58908C2.85633 7.96217 2.75 8.3325 2.75 9.35458V16.3121C2.75 17.3333 2.85633 17.7045 3.05617 18.0776C3.256 18.4507 3.54933 18.744 3.92242 18.9438C4.2955 19.1437 4.66583 19.25 5.68792 19.25H12.6454C13.6666 19.25 14.0378 19.1437 14.4109 18.9438C14.784 18.744 15.0773 18.4507 15.2772 18.0776C15.477 17.7045 15.5833 17.3342 15.5833 16.3121V9.35458C15.5833 8.3325 15.477 7.96217 15.2772 7.58908C15.0818 7.22002 14.78 6.91821 14.4109 6.72283Z" fill="white"/>
</g>
</g>
</g>
</g>
<defs>
<clipPath id="clip0_74_9278">
<rect width="22" height="22" fill="white"/>
</clipPath>
</defs>
</svg>
