<svg width="19" height="19" viewBox="0 0 19 19" fill="none" xmlns="http://www.w3.org/2000/svg">
<path fill-rule="evenodd" clip-rule="evenodd" d="M5.9755 17.0997C13.1452 17.0997 17.0667 11.2511 17.0667 6.17981C17.0667 6.01332 17.0667 5.84809 17.0553 5.68347C17.8182 5.14098 18.4765 4.46743 19 3.69673C18.2894 4.00726 17.5341 4.2109 16.7618 4.30068C17.575 3.82087 18.184 3.06705 18.4756 2.17756C17.7099 2.62464 16.8729 2.94017 15.9999 3.10947C14.5236 1.56433 12.0546 1.48946 10.4842 2.94294C9.47245 3.88013 9.0421 5.27746 9.35655 6.61028C6.2225 6.45502 3.3022 4.99782 1.3224 2.60061C0.28785 4.35432 0.817 6.59698 2.52985 7.7231C1.9095 7.70532 1.30245 7.54088 0.76 7.24346V7.29216C0.76095 9.11884 2.0691 10.6917 3.8874 11.0537C3.3136 11.208 2.7113 11.2304 2.128 11.1191C2.63815 12.6829 4.1021 13.754 5.76935 13.7849C4.389 14.853 2.68375 15.433 0.92815 15.4312C0.61845 15.4302 0.30875 15.4124 0 15.376C1.78315 16.5021 3.857 17.0997 5.9755 17.0969" fill="white"/>
</svg>
